<svg
        class="svg-icon"
        style="width: 1em; height: 1em; vertical-align: middle; fill: #AD1C1C; overflow: hidden;"
        viewBox="0 0 1024 1024" version="1.1" xmlns="http://www.w3.org/2000/svg"
>
    <path d="M17.777951 76.29678c-10.08311 2.007892-13.225898 10.288888-7.03074 18.491937L63.301603 164.31042a202.017635 202.017635 0 0 1 66.322794-32.091976c9.43148-2.584693 19.199688-4.240269 29.133142-5.356457l8.72373-62.603206c1.412384-10.176645-5.599649-16.798948-15.664053-14.772348L17.777951 76.29678zM1008.632143 806.829639l-41.245969 6.51006-9.394066 1.487212-9.431481 1.487212c7.701077-97.950212-51.924587-206.388854-178.521557-213.905978-177.162177-10.510255-367.833975-135.008915-406.623081-322.310323C346.189896 196.923077 262.51006 144.013251 181.19355 144.013251c-8.408827 0-16.780241 0.670337-25.058119 1.823939-7.273932 1.022653-14.491743 2.382033-21.544307 4.333804-22.788328 6.269986-42.733181 16.334389-59.996687 29.039607C14.33585 223.561943-11.320894 301.904029 4.642471 379.017684 77.197837 729.382374 429.776197 954.30058 770.057778 974.485507c4.502168 0.261899 8.9108 0.389731 13.225897 0.38973 58.861792 0 101.894286-24.353486 129.443562-60.461246l7.738491 5.637064 6.940323 5.041555 53.542748 38.994885c8.296585 6.045501 16.52146 2.753057 18.360988-7.348761l24.3909-134.503824c1.823939-10.123642-4.910606-17.023433-15.068544-15.405271z m-306.814634-67.997077c-138.56014-3.311151-254.163589-63.476202-349.154967-162.449067-41.523457-43.272568 24.166415-109.130803 65.783407-65.783407 78.024066 81.297803 168.921713 132.477225 283.37156 135.211575 59.887563 1.434209 60.018512 94.45199 0 93.020899z"/>
</svg>